<?xml version="1.0" standalone="no"?>
<!DOCTYPE svg PUBLIC "-//W3C//DTD SVG 20010904//EN"
 "http://www.w3.org/TR/2001/REC-SVG-20010904/DTD/svg10.dtd">
<svg version="1.0" xmlns="http://www.w3.org/2000/svg"
 width="100.000000pt" height="100.000000pt" viewBox="0 0 100.000000 100.000000"
 preserveAspectRatio="xMidYMid meet">
<metadata>
Created by potrace 1.14, written by Peter Selinger 2001-2017
</metadata>
<g transform="translate(0.000000,100.000000) scale(0.100000,-0.100000)"
fill="#000000" stroke="none">
<path d="M125 881 c-11 -5 -29 -19 -40 -31 -19 -21 -20 -38 -23 -263 -3 -213
-5 -242 -20 -253 -13 -9 -17 -28 -17 -78 0 -60 3 -68 30 -96 23 -23 41 -31 70
-32 22 -1 43 -6 47 -12 5 -8 8 -7 8 2 0 6 7 12 15 12 8 0 15 -6 15 -12 0 -10
2 -10 8 -1 8 13 80 15 87 2 3 -5 14 -3 25 3 14 9 22 9 36 -3 13 -10 16 -10 10
-1 -10 16 25 13 36 -3 5 -6 8 -5 8 3 0 16 27 16 33 0 4 -10 6 -10 6 0 1 6 10
12 22 12 13 0 18 -4 13 -12 -6 -10 -4 -10 7 0 16 15 33 16 24 1 -4 -6 2 -5 13
2 17 11 24 10 38 -2 11 -9 15 -9 10 -1 -4 6 -3 12 1 12 5 0 15 -6 22 -12 8 -8
11 -8 8 -2 -4 7 3 12 18 12 15 0 22 -5 18 -12 -3 -6 0 -6 8 2 16 15 33 16 24
1 -4 -6 2 -5 13 2 17 11 24 10 38 -2 11 -9 15 -9 10 -1 -4 6 -3 12 1 12 5 0
15 -6 22 -12 11 -11 12 -10 6 0 -8 16 26 13 37 -3 5 -6 8 -5 8 3 0 6 7 12 15
12 8 0 15 -6 15 -12 0 -9 3 -9 8 -2 12 18 45 26 54 12 7 -10 9 -10 6 2 -5 18
21 50 42 50 11 0 12 2 3 8 -9 6 -10 17 -3 40 11 40 6 69 -19 102 -20 28 -27
115 -7 103 7 -4 7 -1 -1 8 -15 19 -14 121 1 112 6 -4 6 0 -1 8 -14 17 -14 121
0 112 5 -3 4 4 -2 15 -14 27 -14 35 2 26 8 -5 8 -3 -2 9 -7 9 -11 27 -8 39 8
29 -15 80 -48 106 -27 22 -33 22 -379 21 -193 0 -360 -4 -371 -8z"/>
</g>
</svg>
